<svg width="32" height="32" viewBox="0 0 32 32" fill="none" xmlns="http://www.w3.org/2000/svg">
<rect x="0.181824" width="31.8182" height="31.8182" rx="15.9091" fill="#12C868"/>
<g clip-path="url(#clip0_1_7469)">
<path d="M16.0911 8.90918C12.2266 8.90918 9.09106 12.0447 9.09106 15.9092C9.09106 17.4566 9.59194 18.8818 10.4389 20.0424L9.54714 22.6811L12.3284 21.8138C13.4157 22.506 14.7065 22.9092 16.0911 22.9092C19.9555 22.9092 23.0911 19.7736 23.0911 15.9092C23.0911 12.0447 19.9555 8.90918 16.0911 8.90918ZM19.2958 19.6637C18.0253 20.1727 16.5105 19.68 14.8531 18.4217C13.1958 17.1634 12.1044 15.392 12.0311 14.0767C11.9578 12.7614 13.0288 12.0977 13.6111 12.1017C14.1934 12.1058 14.8328 13.9668 14.8409 14.2518C14.8491 14.5409 14.1283 15.054 14.0998 15.2984C14.0713 15.5427 15.0812 16.748 15.5087 17.0738C15.9323 17.3955 16.8078 18.0145 17.2598 17.9575C17.7077 17.8964 18.005 16.9964 18.29 16.9394C18.5751 16.8824 20.1306 17.6561 20.2854 17.8557C20.4401 18.0593 20.4238 19.2158 19.2958 19.6637Z" fill="white"/>
</g>
<defs>
<clipPath id="clip0_1_7469">
<rect width="14" height="14" fill="white" transform="translate(9.09106 8.90918)"/>
</clipPath>
</defs>
</svg>
