<svg width="67" height="66" fill="none" xmlns="http://www.w3.org/2000/svg"><rect width="67" height="66" rx="33" fill="#F8F8F8"/><path d="M29.15 19H21.9c-1.595 0-2.9 1.26-2.9 2.8v7c0 1.54 1.305 2.8 2.9 2.8h7.25c1.595 0 2.9-1.26 2.9-2.8v-7c0-1.54-1.305-2.8-2.9-2.8Zm0 7H21.9v-1.4h7.25V26Zm15.95 8.4h-7.25c-1.595 0-2.9 1.26-2.9 2.8v7c0 1.54 1.305 2.8 2.9 2.8h7.25c1.595 0 2.9-1.26 2.9-2.8v-7c0-1.54-1.305-2.8-2.9-2.8Zm0 8.4h-7.25v-1.4h7.25v1.4Zm0-2.8h-7.25v-1.4h7.25V40Zm0-21h-7.25c-1.595 0-2.9 1.26-2.9 2.8v7c0 1.54 1.305 2.8 2.9 2.8h7.25c1.595 0 2.9-1.26 2.9-2.8v-7c0-1.54-1.305-2.8-2.9-2.8Zm0 7h-2.9v2.8h-1.45V26h-2.9v-1.4h2.9v-2.8h1.45v2.8h2.9V26Zm-15.95 8.4H21.9c-1.595 0-2.9 1.26-2.9 2.8v7c0 1.54 1.305 2.8 2.9 2.8h7.25c1.595 0 2.9-1.26 2.9-2.8v-7c0-1.54-1.305-2.8-2.9-2.8Zm-.58 8.26-1.015.98-2.03-1.96-2.03 1.96-1.015-.98 2.03-1.96-2.03-1.96 1.015-.98 2.03 1.96 2.03-1.96 1.015.98-2.03 1.96 2.03 1.96Z" fill="#FD2016"/></svg>