<svg width="36" height="35" fill="none" xmlns="http://www.w3.org/2000/svg"><rect width="35.032" height="35" rx="17.5" fill="#F8F8F8"/><path d="M15.25 10H11.5c-.825 0-1.5.675-1.5 1.5v3.75c0 .825.675 1.5 1.5 1.5h3.75c.825 0 1.5-.675 1.5-1.5V11.5c0-.825-.675-1.5-1.5-1.5Zm0 3.75H11.5V13h3.75v.75Zm8.25 4.5h-3.75c-.825 0-1.5.675-1.5 1.5v3.75c0 .825.675 1.5 1.5 1.5h3.75c.825 0 1.5-.675 1.5-1.5v-3.75c0-.825-.675-1.5-1.5-1.5Zm0 4.5h-3.75V22h3.75v.75Zm0-1.5h-3.75v-.75h3.75v.75Zm0-11.25h-3.75c-.825 0-1.5.675-1.5 1.5v3.75c0 .825.675 1.5 1.5 1.5h3.75c.825 0 1.5-.675 1.5-1.5V11.5c0-.825-.675-1.5-1.5-1.5Zm0 3.75H22v1.5h-.75v-1.5h-1.5V13h1.5v-1.5H22V13h1.5v.75Zm-8.25 4.5H11.5c-.825 0-1.5.675-1.5 1.5v3.75c0 .825.675 1.5 1.5 1.5h3.75c.825 0 1.5-.675 1.5-1.5v-3.75c0-.825-.675-1.5-1.5-1.5Zm-.3 4.425-.525.525-1.05-1.05-1.05 1.05-.525-.525 1.05-1.05-1.05-1.05.525-.525 1.05 1.05 1.05-1.05.525.525-1.05 1.05 1.05 1.05Z" fill="#FD2016"/></svg>