<svg width="36" height="35" fill="none" xmlns="http://www.w3.org/2000/svg"><rect width="35.032" height="35" rx="17.5" fill="#20C863"/><path d="M17.178 10.377a6.79 6.79 0 0 0-6.79 6.785c0 1.5.485 2.881 1.307 4.006l-.865 2.558 2.698-.84a6.78 6.78 0 0 0 3.65 1.061 6.79 6.79 0 0 0 6.792-6.785 6.79 6.79 0 0 0-6.792-6.785Zm3.11 10.424c-1.233.494-2.703.016-4.31-1.204-1.608-1.22-2.667-2.936-2.739-4.211-.07-1.275.968-1.918 1.533-1.914.565.003 1.186 1.807 1.194 2.084.008.28-.692.777-.72 1.014-.027.237.953 1.405 1.367 1.72.411.313 1.26.913 1.7.857.434-.059.722-.931.999-.986.276-.056 1.786.694 1.936.888.15.197.134 1.318-.96 1.752Z" fill="#fff"/></svg>