<svg width="32" height="32" fill="none" xmlns="http://www.w3.org/2000/svg"><rect x=".182" width="31.818" height="31.818" rx="15.909" fill="#12C868"/><g clip-path="url(#a)"><path d="M16.091 8.91a7.002 7.002 0 0 0-5.652 11.132l-.892 2.64 2.781-.868a7.002 7.002 0 0 0 10.763-5.905c0-3.864-3.136-7-7-7Zm3.205 10.754c-1.27.509-2.785.016-4.443-1.242-1.657-1.259-2.749-3.03-2.822-4.345-.073-1.316.998-1.98 1.58-1.975.582.004 1.222 1.865 1.23 2.15.008.289-.713.802-.741 1.046-.029.245.981 1.45 1.409 1.776.423.321 1.299.94 1.75.883.449-.06.746-.96 1.031-1.018.285-.057 1.84.717 1.995.917.155.203.139 1.36-.99 1.808Z" fill="#fff"/></g><defs><clipPath id="a"><path fill="#fff" transform="translate(9.091 8.91)" d="M0 0h14v14H0z"/></clipPath></defs></svg>