<svg width="32" height="32" fill="none" xmlns="http://www.w3.org/2000/svg"><rect width="31.818" height="31.818" rx="15.909" fill="#05A0EB"/><g clip-path="url(#a)"><path d="m14.153 17.311-.222 3.02c.316 0 .455-.132.619-.292l1.482-1.377 3.073 2.186c.563.304.96.144 1.111-.505l2.018-9.18c.18-.806-.3-1.123-.848-.923L9.53 14.649c-.81.304-.796.743-.139.94l3.03.916 7.04-4.28c.332-.213.632-.096.384.12l-5.693 4.966Z" fill="#fff"/></g><defs><clipPath id="a"><path fill="#fff" transform="translate(8.91 10.182)" d="M0 0h13.364v10.818H0z"/></clipPath></defs></svg>