<svg width="36" height="35" fill="none" xmlns="http://www.w3.org/2000/svg"><rect width="35.032" height="35" rx="17.5" fill="#776EE9"/><path d="M18.997 10.377h-2.842c-2.75 0-4.97 2.244-4.97 5.03v2.156c0 1.946 1.104 3.714 2.842 4.541v2.408c0 .122.11.233.25.233.055 0 .12-.023.165-.065l2.054-2.09h2.5c2.755 0 4.973-2.245 4.973-5.03v-2.156c0-2.783-2.218-5.027-4.972-5.027Zm1.868 9.427-.71.718c-.766.752-2.732-.111-4.47-1.9-1.739-1.788-2.51-3.812-1.778-4.563l.71-.72a.737.737 0 0 1 1.016.024l1.028 1.083a.72.72 0 0 1-.023 1.007.857.857 0 0 1-.262.167c-.36.112-.545.463-.458.83.175.798 1.168 1.792 1.924 1.989.35.088.71-.112.83-.453a.7.7 0 0 1 .886-.43c.11.033.198.112.285.177l1.029 1.083c.256.26.256.702-.007.988Zm-2.653-6.011c-.078 0-.143 0-.208.023-.12.023-.25-.08-.263-.22-.013-.141.078-.253.208-.266.087-.023.175-.023.263-.023 1.31 0 2.361 1.083 2.38 2.389 0 .088 0 .177-.022.266-.023.121-.12.233-.263.21-.142-.023-.23-.122-.207-.266 0-.079.022-.145.022-.21a1.925 1.925 0 0 0-1.91-1.903Zm1.42 1.923c-.022.12-.12.232-.262.21-.11-.024-.208-.112-.208-.21a.953.953 0 0 0-.94-.952c-.12.023-.25-.089-.263-.22-.023-.121.087-.253.207-.266h.033c.82 0 1.433.64 1.433 1.438Zm1.814.76a.253.253 0 0 1-.263.2c-.12-.009-.208-.143-.198-.265v-.033c.055-.21.078-.43.078-.662 0-1.582-1.278-2.875-2.842-2.875h-.207c-.12.023-.25-.088-.25-.22-.023-.121.088-.252.208-.252.087 0 .175-.023.25-.023 1.826 0 3.321 1.502 3.321 3.36a4.36 4.36 0 0 1-.097.77Z" fill="#fff"/></svg>