<svg xmlns="http://www.w3.org/2000/svg" xmlns:xlink="http://www.w3.org/1999/xlink"><defs><clipPath id="a"><path fill="#fff" transform="translate(8.91 10.182)" d="M0 0h13.364v10.818H0z"/></clipPath><clipPath id="a"><path fill="#fff" transform="translate(9.091 8.91)" d="M0 0h14v14H0z"/></clipPath></defs><symbol id="arrow-phone-number"><g fill="none"><path fill-rule="evenodd" clip-rule="evenodd" d="M4.468 4.969 0 .687.675.031 4.5 3.687 8.325 0 9 .656 4.5 5l-.032-.031Z" fill="#FD2016"/></g></symbol><symbol id="icon-anchor"><g fill="none"><path d="M11.975 7.024a6.418 6.418 0 0 1-1.768 3.62c-.556.525-1.06 1.103-1.616 1.627-.808.893-1.616 1.837-2.424 2.729-1.718-1.836-3.384-3.41-4.95-5.142-.91-1.05-1.263-2.414-1.212-3.83C.055 2.983 2.328.36 5.156.044c3.182-.367 5.91 1.522 6.718 4.618.202.63.1 2.256.1 2.361Zm-5.96 1.26c1.06 0 1.97-.892 1.97-1.994 0-1.102-.91-2.047-1.92-2.047-1.01 0-1.97.945-1.97 1.994 0 1.102.86 2.047 1.92 2.047Z" fill="#FD2016"/></g></symbol><symbol id="icon-calculation-desktop"><g fill="none"><rect width="35.032" height="35" rx="17.5" fill="#F8F8F8"/><path d="M15.25 10H11.5c-.825 0-1.5.675-1.5 1.5v3.75c0 .825.675 1.5 1.5 1.5h3.75c.825 0 1.5-.675 1.5-1.5V11.5c0-.825-.675-1.5-1.5-1.5Zm0 3.75H11.5V13h3.75v.75Zm8.25 4.5h-3.75c-.825 0-1.5.675-1.5 1.5v3.75c0 .825.675 1.5 1.5 1.5h3.75c.825 0 1.5-.675 1.5-1.5v-3.75c0-.825-.675-1.5-1.5-1.5Zm0 4.5h-3.75V22h3.75v.75Zm0-1.5h-3.75v-.75h3.75v.75Zm0-11.25h-3.75c-.825 0-1.5.675-1.5 1.5v3.75c0 .825.675 1.5 1.5 1.5h3.75c.825 0 1.5-.675 1.5-1.5V11.5c0-.825-.675-1.5-1.5-1.5Zm0 3.75H22v1.5h-.75v-1.5h-1.5V13h1.5v-1.5H22V13h1.5v.75Zm-8.25 4.5H11.5c-.825 0-1.5.675-1.5 1.5v3.75c0 .825.675 1.5 1.5 1.5h3.75c.825 0 1.5-.675 1.5-1.5v-3.75c0-.825-.675-1.5-1.5-1.5Zm-.3 4.425-.525.525-1.05-1.05-1.05 1.05-.525-.525 1.05-1.05-1.05-1.05.525-.525 1.05 1.05 1.05-1.05.525.525-1.05 1.05 1.05 1.05Z" fill="#FD2016"/></g></symbol><symbol id="icon-calculation-mobile"><g fill="none"><rect width="67" height="66" rx="33" fill="#F8F8F8"/><path d="M29.15 19H21.9c-1.595 0-2.9 1.26-2.9 2.8v7c0 1.54 1.305 2.8 2.9 2.8h7.25c1.595 0 2.9-1.26 2.9-2.8v-7c0-1.54-1.305-2.8-2.9-2.8Zm0 7H21.9v-1.4h7.25V26Zm15.95 8.4h-7.25c-1.595 0-2.9 1.26-2.9 2.8v7c0 1.54 1.305 2.8 2.9 2.8h7.25c1.595 0 2.9-1.26 2.9-2.8v-7c0-1.54-1.305-2.8-2.9-2.8Zm0 8.4h-7.25v-1.4h7.25v1.4Zm0-2.8h-7.25v-1.4h7.25V40Zm0-21h-7.25c-1.595 0-2.9 1.26-2.9 2.8v7c0 1.54 1.305 2.8 2.9 2.8h7.25c1.595 0 2.9-1.26 2.9-2.8v-7c0-1.54-1.305-2.8-2.9-2.8Zm0 7h-2.9v2.8h-1.45V26h-2.9v-1.4h2.9v-2.8h1.45v2.8h2.9V26Zm-15.95 8.4H21.9c-1.595 0-2.9 1.26-2.9 2.8v7c0 1.54 1.305 2.8 2.9 2.8h7.25c1.595 0 2.9-1.26 2.9-2.8v-7c0-1.54-1.305-2.8-2.9-2.8Zm-.58 8.26-1.015.98-2.03-1.96-2.03 1.96-1.015-.98 2.03-1.96-2.03-1.96 1.015-.98 2.03 1.96 2.03-1.96 1.015.98-2.03 1.96 2.03 1.96Z" fill="#FD2016"/></g></symbol><symbol id="icon-close"><g fill="none"><path fill-rule="evenodd" clip-rule="evenodd" d="M10 12.253 2.48 20 0 17.444l7.519-7.747-6.93-7.14L3.07 0 10 7.14 16.93 0l2.48 2.556-6.93 7.14L20 17.445 17.519 20l-7.52-7.747Z" fill="#fff"/></g></symbol><symbol id="icon-mouse"><g fill="none"><path fill-rule="evenodd" clip-rule="evenodd" d="M10.193 4.385V.711c0-.296-.06-.415-.178-.533C9.897.059 9.72 0 9.482 0c-.237 0-.415.06-.533.178C8.83.296 8.77.415 8.77.71v3.674l-.652.119C3.734 5.156.297 9.067.297 13.807v8.711C.297 27.852 4.386 32 9.482 32s9.185-4.148 9.185-9.482v-8.71c0-4.741-3.437-8.652-7.881-9.304l-.593-.119ZM1.66 13.807c0-4.503 3.437-8.059 7.822-8.059s7.822 3.556 7.822 8.06v9.007c0 4.503-3.437 8.06-7.822 8.06s-7.822-3.556-7.822-8.06v-9.008Z" fill="#EFEFEF"/></g></symbol><symbol id="icon-phone"><g fill="none"><path d="M5.043 3.748c-.21-.218-.483-.218-.701 0l-.492.49c-.046.045-.082.054-.137.028-.1-.063-.218-.108-.318-.173a5.158 5.158 0 0 1-1.23-1.115 2.994 2.994 0 0 1-.438-.708c-.017-.054-.017-.081.028-.127.174-.155.328-.317.492-.48.228-.227.228-.49 0-.717l-.392-.39c-.136-.136-.264-.272-.4-.4-.21-.208-.484-.208-.702 0L.26.647a.852.852 0 0 0-.256.544c-.028.336.055.662.174.98.246.662.62 1.233 1.065 1.768a6.522 6.522 0 0 0 2.188 1.706c.383.181.775.326 1.193.354.301.017.557-.063.765-.291.136-.164.3-.3.446-.453.219-.227.219-.499 0-.717l-.793-.789Z" fill="#FD2016"/></g></symbol><symbol id="social-icon-telegram-desktop"><g fill="none"><rect width="35.032" height="35" rx="17.5" fill="#2FB3F3"/><path d="m16.201 18.814-.212 2.898c.302 0 .435-.127.592-.28l1.418-1.32 2.94 2.096c.539.292.919.139 1.063-.484l1.93-8.809c.173-.773-.287-1.077-.811-.885l-11.342 4.23c-.774.292-.761.713-.132.903l2.899.878 6.735-4.107c.317-.204.604-.092.367.115L16.2 18.814Z" fill="#fff"/></g></symbol><symbol id="social-icon-telegram-mobile"><g fill="none"><rect width="31.818" height="31.818" rx="15.909" fill="#05A0EB"/><g clip-path="url(#a)"><path d="m14.153 17.311-.222 3.02c.316 0 .455-.132.619-.292l1.482-1.377 3.073 2.186c.563.304.96.144 1.111-.505l2.018-9.18c.18-.806-.3-1.123-.848-.923L9.53 14.649c-.81.304-.796.743-.139.94l3.03.916 7.04-4.28c.332-.213.632-.096.384.12l-5.693 4.966Z" fill="#fff"/></g></g></symbol><symbol id="social-icon-viber-desktop"><g fill="none"><rect width="35.032" height="35" rx="17.5" fill="#776EE9"/><path d="M18.997 10.377h-2.842c-2.75 0-4.97 2.244-4.97 5.03v2.156c0 1.946 1.104 3.714 2.842 4.541v2.408c0 .122.11.233.25.233.055 0 .12-.023.165-.065l2.054-2.09h2.5c2.755 0 4.973-2.245 4.973-5.03v-2.156c0-2.783-2.218-5.027-4.972-5.027Zm1.868 9.427-.71.718c-.766.752-2.732-.111-4.47-1.9-1.739-1.788-2.51-3.812-1.778-4.563l.71-.72a.737.737 0 0 1 1.016.024l1.028 1.083a.72.72 0 0 1-.023 1.007.857.857 0 0 1-.262.167c-.36.112-.545.463-.458.83.175.798 1.168 1.792 1.924 1.989.35.088.71-.112.83-.453a.7.7 0 0 1 .886-.43c.11.033.198.112.285.177l1.029 1.083c.256.26.256.702-.007.988Zm-2.653-6.011c-.078 0-.143 0-.208.023-.12.023-.25-.08-.263-.22-.013-.141.078-.253.208-.266.087-.023.175-.023.263-.023 1.31 0 2.361 1.083 2.38 2.389 0 .088 0 .177-.022.266-.023.121-.12.233-.263.21-.142-.023-.23-.122-.207-.266 0-.079.022-.145.022-.21a1.925 1.925 0 0 0-1.91-1.903Zm1.42 1.923c-.022.12-.12.232-.262.21-.11-.024-.208-.112-.208-.21a.953.953 0 0 0-.94-.952c-.12.023-.25-.089-.263-.22-.023-.121.087-.253.207-.266h.033c.82 0 1.433.64 1.433 1.438Zm1.814.76a.253.253 0 0 1-.263.2c-.12-.009-.208-.143-.198-.265v-.033c.055-.21.078-.43.078-.662 0-1.582-1.278-2.875-2.842-2.875h-.207c-.12.023-.25-.088-.25-.22-.023-.121.088-.252.208-.252.087 0 .175-.023.25-.023 1.826 0 3.321 1.502 3.321 3.36a4.36 4.36 0 0 1-.097.77Z" fill="#fff"/></g></symbol><symbol id="social-icon-whatsapp-desktop"><g fill="none"><rect width="35.032" height="35" rx="17.5" fill="#20C863"/><path d="M17.178 10.377a6.79 6.79 0 0 0-6.79 6.785c0 1.5.485 2.881 1.307 4.006l-.865 2.558 2.698-.84a6.78 6.78 0 0 0 3.65 1.061 6.79 6.79 0 0 0 6.792-6.785 6.79 6.79 0 0 0-6.792-6.785Zm3.11 10.424c-1.233.494-2.703.016-4.31-1.204-1.608-1.22-2.667-2.936-2.739-4.211-.07-1.275.968-1.918 1.533-1.914.565.003 1.186 1.807 1.194 2.084.008.28-.692.777-.72 1.014-.027.237.953 1.405 1.367 1.72.411.313 1.26.913 1.7.857.434-.059.722-.931.999-.986.276-.056 1.786.694 1.936.888.15.197.134 1.318-.96 1.752Z" fill="#fff"/></g></symbol><symbol id="social-icon-whatsapp-mobile"><g fill="none"><rect x=".182" width="31.818" height="31.818" rx="15.909" fill="#12C868"/><g clip-path="url(#a)"><path d="M16.091 8.91a7.002 7.002 0 0 0-5.652 11.132l-.892 2.64 2.781-.868a7.002 7.002 0 0 0 10.763-5.905c0-3.864-3.136-7-7-7Zm3.205 10.754c-1.27.509-2.785.016-4.443-1.242-1.657-1.259-2.749-3.03-2.822-4.345-.073-1.316.998-1.98 1.58-1.975.582.004 1.222 1.865 1.23 2.15.008.289-.713.802-.741 1.046-.029.245.981 1.45 1.409 1.776.423.321 1.299.94 1.75.883.449-.06.746-.96 1.031-1.018.285-.057 1.84.717 1.995.917.155.203.139 1.36-.99 1.808Z" fill="#fff"/></g></g></symbol></svg>